# xmcd
#
# Track frame offsets:
#	150
#	17290
#	39577
#	59160
#	81235
#	94990
#	111647
#	128642
#	149145
#	168065
#
# Disc length: 2513 seconds
#
# Revision: 3
# Processed by: cddbd v1.5.2PL0 Copyright (c) Steve Scherf et al.
# Submitted via: EZCDAudioConverter 7.1.0.1
#
DISCID=8c09cf0a
DTITLE=小虎队 - 星星的约会
DYEAR=1990
DGENRE=
TTITLE0=小虎队 - 星星的约会
TTITLE1=小虎队 - 叫你一声My Love
TTITLE2=吴奇隆 - 最想你的时候
TTITLE3=陈志朋 - 唱我最爱的歌給你听
TTITLE4=苏有朋 - 发动我的青春
TTITLE5=小虎队 - 爱我就跟我走
TTITLE6=小虎队 - 青春期的故事
TTITLE7=苏有朋 - 你的笑容是我温暖的所有
TTITLE8=陈志朋 - 让我送你回家
TTITLE9=吴奇隆 - 不要让眼泪流在心里面
EXTD=
EXTT0=
EXTT1=
EXTT2=
EXTT3=
EXTT4=
EXTT5=
EXTT6=
EXTT7=
EXTT8=
EXTT9=
PLAYORDER=
